<?xml version="1.0" encoding="utf-8"?>
<!-- Generator: Adobe Illustrator 18.1.1, SVG Export Plug-In . SVG Version: 6.00 Build 0)  -->
<svg version="1.1" id="Layer_1" xmlns="http://www.w3.org/2000/svg" xmlns:xlink="http://www.w3.org/1999/xlink" x="0px" y="0px"
	 viewBox="0 0 226.7 30.6" enable-background="new 0 0 226.7 30.6" xml:space="preserve">
<g>
	<path fill="#FFFFFF" d="M52.1,19.8h-7.1l-1.4,3.5h-4.5l7.5-18.7h3.9L58,23.3h-4.5L52.1,19.8z M51,16.5l-2.3-6.3l-2.3,6.3H51z"/>
	<path fill="#FFFFFF" d="M72.5,4.7c2.5,0,5.1,0.4,7.4,2.6c1.7,1.6,2.7,3.8,2.7,6.7c0,2.9-1,5.1-2.5,6.6c-2.6,2.6-5.8,2.8-7.4,2.8h-6
		V4.7H72.5z M70.9,19.7h1.1c0.9,0,2.9-0.1,4.3-1.3c1-0.8,1.8-2.4,1.8-4.5c0-2-0.8-3.3-1.5-4c-1.4-1.4-3.2-1.6-4.5-1.6h-1.1V19.7z"/>
	<path fill="#FFFFFF" d="M96.5,19.8h-7.1L88,23.3h-4.5l7.5-18.7H95l7.4,18.7h-4.5L96.5,19.8z M95.3,16.5L93,10.2l-2.3,6.3H95.3z"/>
	<path fill="#FFFFFF" d="M107.1,14.6l-6.7-10h5.1l3.8,5.8l3.8-5.8h5.1l-6.7,10v8.7h-4.3V14.6z"/>
	<path fill="#FFFFFF" d="M143.2,7c1.8,1.7,2.9,4.2,2.9,7.1c0,2.5-0.9,5-2.9,7c-1.7,1.7-4.1,2.7-7.2,2.7c-3.5,0-5.9-1.4-7.3-2.7
		c-1.8-1.7-2.9-4.2-2.9-6.9c0-2.7,1.2-5.4,2.9-7.1c1.3-1.3,3.6-2.7,7.3-2.7C138.9,4.2,141.3,5.1,143.2,7z M131.9,9.8
		c-0.8,0.8-1.7,2.2-1.7,4.2c0,1.7,0.6,3.1,1.7,4.2c1.2,1.1,2.5,1.5,4,1.5c1.9,0,3.2-0.7,4.1-1.6c0.7-0.7,1.6-2,1.6-4.2
		c0-1.9-0.8-3.4-1.6-4.2c-0.9-0.9-2.4-1.6-4.1-1.6C134.3,8.2,132.9,8.8,131.9,9.8z"/>
	<path fill="#FFFFFF" d="M159.7,8.3h-6v3.6h5.6v3.6h-5.6v7.8h-4.3V4.7h10.4V8.3z"/>
	<path fill="#FFFFFF" d="M175.9,4.7c2.4,0,3.9,0.8,4.8,1.6c0.8,0.8,1.6,2.1,1.6,4.2c0,1.2-0.3,2.6-1.5,3.8c-0.6,0.6-1.6,1.2-2.6,1.4
		l5.7,7.6h-5.3l-5-7.4v7.4h-4.3V4.7H175.9z M173.7,13.1h1c0.8,0,1.8-0.1,2.6-0.8c0.3-0.3,0.7-0.9,0.7-1.8c0-1.1-0.5-1.6-0.9-1.9
		c-0.7-0.5-1.8-0.6-2.4-0.6h-1V13.1z"/>
	<path fill="#FFFFFF" d="M196.9,8.3h-6.2v3.6h5.9v3.6h-5.9v4.1h6.2v3.6h-10.6V4.7h10.6V8.3z"/>
	<path fill="#FFFFFF" d="M210.1,9.2c-1.4-1.3-2.6-1.3-3.1-1.3c-0.6,0-1.3,0.1-1.8,0.6c-0.3,0.3-0.5,0.7-0.5,1.2c0,0.4,0.1,0.8,0.4,1
		c0.4,0.4,1.1,0.6,2.4,1.1l1.4,0.5c0.8,0.3,1.8,0.7,2.5,1.4c1.1,1,1.4,2.4,1.4,3.5c0,1.9-0.7,3.6-1.7,4.6c-1.7,1.7-4.1,1.9-5.3,1.9
		c-1.3,0-2.5-0.2-3.7-0.8c-1-0.5-2-1.3-2.7-2l2.2-3.1c0.5,0.5,1.2,1.1,1.7,1.4c0.7,0.4,1.5,0.7,2.4,0.7c0.6,0,1.3-0.1,2-0.6
		c0.4-0.3,0.7-0.8,0.7-1.5c0-0.6-0.3-1-0.6-1.3c-0.5-0.4-1.7-0.8-2.2-1l-1.5-0.5c-0.9-0.3-1.9-0.7-2.6-1.5c-1-1-1.1-2.4-1.1-3.2
		c0-1.7,0.5-3.1,1.6-4.2c1.3-1.3,2.9-1.7,4.6-1.7c1.3,0,3.4,0.2,5.5,1.8L210.1,9.2z"/>
	<path fill="#FFFFFF" d="M222.4,8.3v15h-4.3v-15H214V4.7h12.4v3.6H222.4z"/>
</g>
<g>
	<circle fill="#FFFFFF" cx="29.2" cy="2.9" r="2.5"/>
	<path fill="#FFFFFF" d="M26.8,4.6l-7.5,7.5c0.3,0.2,0.5,0.4,0.7,0.7l7.5-7.5C27.2,5.1,27,4.9,26.8,4.6z"/>
	<circle fill="#FFFFFF" cx="2" cy="12.3" r="2"/>
	<circle fill="#FFFFFF" cx="15.9" cy="16.3" r="5"/>
	<path fill="#FFFFFF" d="M4.5,12.5c0,0.3-0.1,0.7-0.3,1l6.3,1.8c0.1-0.3,0.2-0.7,0.3-1L4.5,12.5z"/>
	<path fill="#FFFFFF" d="M20.3,19.4c-0.2,0.3-0.4,0.5-0.6,0.8l4.3,3.6c0.2-0.3,0.4-0.5,0.6-0.8L20.3,19.4L20.3,19.4z"/>
	<circle fill="#FFFFFF" cx="27.8" cy="26.2" r="4"/>
</g>
</svg>
